<?xml version="1.0"?>
<svg xmlns="http://www.w3.org/2000/svg" viewBox="0 0 64 64" width="512" height="512"><g id="Outline"><g><circle cx="7" cy="7" r="1"/><circle cx="11" cy="7" r="1"/><circle cx="15" cy="7" r="1"/><path d="M24,6a1,1,0,0,0,0,2h9a1,1,0,0,0,0-2Z"/><path d="M39,6a1,1,0,0,0,0,2H54a1,1,0,0,0,0-2Z"/><path d="M61,36a1,1,0,0,0-1,1V60H4V24a1,1,0,0,0-2,0V61a1,1,0,0,0,1,1H61a1,1,0,0,0,1-1V37A1,1,0,0,0,61,36Z"/><path d="M61,2H3A1,1,0,0,0,2,3V20a1,1,0,0,0,2,0V12H57a1,1,0,0,0,0-2H20V4H60V28H24.32a1,1,0,0,0,0,2H60v3a1,1,0,0,0,2,0V3A1,1,0,0,0,61,2ZM18,10H4V4H18Z"/><path d="M10.6,33.23h0a7.9,7.9,0,0,0,6.76,0h0a8,8,0,1,0-6.8,0ZM14,28a2,2,0,1,1,2-2A2,2,0,0,1,14,28Zm-2,3.65V31a1,1,0,0,1,1-1h2a1,1,0,0,1,1,1v.65a5.89,5.89,0,0,1-4,0ZM14,20A6,6,0,0,1,18,30.51a3,3,0,0,0-1-1.8,4,4,0,1,0-5.84,0,3,3,0,0,0-1,1.8A6,6,0,0,1,14,20Z"/><path d="M28,17h1a1,1,0,0,0,0-2H28a3,3,0,0,0-3,3v1H24a1,1,0,0,0,0,2h1v3a1,1,0,0,0,2,0V21h1a1,1,0,0,0,0-2H27V18A1,1,0,0,1,28,17Z"/><path d="M39,25a3,3,0,0,0,3-3V18a3,3,0,0,0-3-3H35a3,3,0,0,0-3,3v4a3,3,0,0,0,3,3Zm-5-3V18a1,1,0,0,1,1-1h4a1,1,0,0,1,1,1v4a1,1,0,0,1-1,1H35A1,1,0,0,1,34,22Z"/><circle cx="37" cy="20" r="1"/><path d="M50.49,25a1,1,0,0,0,.71-.29l3.93-3.93a3.39,3.39,0,0,0,0-4.79,3.47,3.47,0,0,0-4.64-.14,3.39,3.39,0,0,0-4.64,4.93l3.93,3.93A1,1,0,0,0,50.49,25Zm-3.63-6.62a1.36,1.36,0,0,1,.41-1,1.38,1.38,0,0,1,1-.41,1.41,1.41,0,0,1,1,.4l.56.57a1,1,0,0,0,1.42,0l.56-.56a1.42,1.42,0,0,1,2,0,1.39,1.39,0,0,1,.4,1,1.38,1.38,0,0,1-.4,1l-3.23,3.23-3.22-3.23A1.39,1.39,0,0,1,46.86,18.38Z"/><path d="M6,42a1,1,0,0,0,1,1H21a1,1,0,0,0,1-1V38a1,1,0,0,0-1-1H7a1,1,0,0,0-1,1Zm2-3H20v2H8Z"/><path d="M7,47H21a1,1,0,0,0,0-2H7a1,1,0,0,0,0,2Z"/><path d="M7,51H21a1,1,0,0,0,0-2H7a1,1,0,0,0,0,2Z"/><path d="M7,55H21a1,1,0,0,0,0-2H7a1,1,0,0,0,0,2Z"/><path d="M29,36a1,1,0,0,0,0,2H55a1,1,0,0,0,1-1V33a1,1,0,0,0-1-1H29a1,1,0,0,0,0,2H54v2Z"/><path d="M29,49a1,1,0,0,0-1,1v3a1,1,0,0,0,1,1H55a1,1,0,0,0,1-1V41a1,1,0,0,0-1-1H29a1,1,0,0,0-1,1v5a1,1,0,0,0,2,0V42H54V52H48.62l-2.73-5.45a1,1,0,0,0-1.78,0L43,48.76l-2.11-4.21a1,1,0,0,0-1.78,0L37,48.76l-1.11-2.21a1,1,0,0,0-1.78,0L31.38,52H30V50A1,1,0,0,0,29,49Zm16,.24L46.38,52H44.62l-.5-1Zm-5-2L42.38,52H37.62Zm-5,2L35.88,51l-.5,1H33.62Z"/><circle cx="49" cy="45" r="1"/><path d="M29,58H45a1,1,0,0,0,0-2H29a1,1,0,0,0,0,2Z"/><path d="M55,56H51a1,1,0,0,0,0,2h4a1,1,0,0,0,0-2Z"/></g></g></svg>
